<svg width="40" height="40" viewBox="0 0 40 40" fill="none" xmlns="http://www.w3.org/2000/svg">
<path fill-rule="evenodd" clip-rule="evenodd" d="M30 0H10C4.47715 0 0 4.47715 0 10V30C0 35.5228 4.47715 40 10 40H30C35.5228 40 40 35.5228 40 30V10L30 0Z" fill="#E95E51"/>
<path fill-rule="evenodd" clip-rule="evenodd" d="M34.16 10H40L30 0V5.84C30 8.20714 31.7929 10 34.16 10" fill="#0D1017" fill-opacity="0.3"/>
<path fill-rule="evenodd" clip-rule="evenodd" d="M19.6166 10.4918C19.3642 10.5352 18.8946 10.6162 18.8646 11.5943C18.8365 12.5111 19.209 13.7747 19.8269 15.1548C20.2604 13.095 20.3606 11.4441 19.9801 10.6834C19.8799 10.4809 19.8088 10.4582 19.6166 10.4918ZM20.2754 19.1224C19.7888 20.6764 19.196 22.2779 18.5392 23.8122C19.929 23.253 21.3399 22.7659 22.6696 22.3935C21.8295 21.4045 21.0104 20.2832 20.2754 19.1224ZM25.4954 23.2273C26.2303 23.8823 26.9212 24.3288 27.5 24.4642C27.9246 24.562 28.1328 24.4593 28.3271 24.0483C28.6425 23.3804 28.4503 23.2846 28.3361 23.2273C27.8204 22.9694 26.7981 22.9951 25.4954 23.2273ZM15.4721 26.8036C13.167 27.9911 11.2976 29.2923 10.6537 30.4393C10.3894 30.9115 10.4535 31.1407 10.9271 31.4213C11.3146 31.6515 11.8723 31.444 12.5793 30.7989C13.5455 29.9216 14.5369 28.5009 15.4721 26.8036ZM11.2605 33C10.8159 33 10.4464 32.8647 10.1551 32.6918C8.98852 32.0012 8.68412 30.8907 9.33998 29.722C10.2362 28.1245 13.1771 26.2267 16.5565 24.6687C17.65 22.3362 18.6072 19.7418 19.2671 17.4024C18.0906 15.221 17.3165 13.0673 17.3636 11.5498C17.4057 10.1608 18.1336 9.243 19.3582 9.03158C20.2134 8.88636 20.9363 9.24597 21.3268 10.0274C21.9537 11.2801 21.6683 14.0059 20.8442 17.1544C21.8255 18.8893 23.0581 20.6359 24.2697 21.9914C26.3535 21.535 28.0948 21.4431 29.017 21.9064C29.3925 22.0951 30.549 22.8509 29.6889 24.6736C29.1942 25.7179 28.273 26.1664 27.1525 25.9066C26.1692 25.6754 24.9827 24.8189 23.7821 23.6077C21.8966 24.0977 19.7057 24.8683 17.648 25.7712C16.3753 28.4031 14.9464 30.6625 13.5966 31.8886C12.6774 32.7244 11.8934 33 11.2605 33Z" fill="white"/>
</svg>
